# xmcd
# Copyright (C) 1995-1998 Ti Kan
#
# Track frame offsets:
#       150
#       14859
#       29767
#
# Disc length: 589 seconds
#
# Revision: 0
# Processed by: cddbd v1.5.2PL0 Copyright (c) Steve Scherf et al.
# Submitted via: CD-Transfer v1.0
#
DISCID=26024b03
DTITLE=Sunflowers - 
DYEAR=11
DGENRE=
TTITLE0=Ti Amo, My Darling
TTITLE1=Eine Kleine Träne
TTITLE2=Du Und I
EXTD=
EXTT0=
EXTT1=
EXTT2=
PLAYORDER=
